<svg xmlns="http://www.w3.org/2000/svg" viewBox="0 0 960 540" role="img" aria-labelledby="title desc">
  <title id="title">Dispo Board Wireframe</title>
  <desc id="desc">Week calendar view with team filters, blocker overlay and job cards with emoji statuses.</desc>
  <rect width="960" height="540" fill="#f8fafc"/>
  <rect x="32" y="32" width="896" height="64" fill="#0f172a" rx="8"/>
  <text x="64" y="72" font-family="Arial,Helvetica,sans-serif" font-size="28" fill="#f8fafc">Dispo Board · Woche 18</text>
  <rect x="32" y="120" width="160" height="320" fill="#e2e8f0" rx="12"/>
  <text x="56" y="160" font-family="Arial,Helvetica,sans-serif" font-size="20" fill="#0f172a">Teams</text>
  <text x="56" y="196" font-family="Arial,Helvetica,sans-serif" font-size="18" fill="#1e293b">Team Alpha</text>
  <text x="56" y="228" font-family="Arial,Helvetica,sans-serif" font-size="18" fill="#1e293b">Team Beta</text>
  <rect x="216" y="120" width="712" height="320" fill="#cbd5f5" opacity="0.35"/>
  <g fill="#94a3b8" opacity="0.8">
    <rect x="216" y="120" width="712" height="40"/>
    <rect x="216" y="200" width="712" height="40"/>
    <rect x="216" y="280" width="712" height="40"/>
    <rect x="216" y="360" width="712" height="40"/>
  </g>
  <rect x="248" y="168" width="176" height="88" fill="#ffffff" stroke="#334155" stroke-width="2" rx="10"/>
  <text x="264" y="196" font-family="Arial,Helvetica,sans-serif" font-size="22" fill="#0f172a">🔴 Zürich</text>
  <text x="264" y="224" font-family="Arial,Helvetica,sans-serif" font-size="16" fill="#1e293b">LS 5009 · Küng AG</text>
  <rect x="456" y="264" width="176" height="88" fill="#ffffff" stroke="#15803d" stroke-width="2" rx="10"/>
  <text x="472" y="292" font-family="Arial,Helvetica,sans-serif" font-size="22" fill="#166534">✅ Bern</text>
  <text x="472" y="320" font-family="Arial,Helvetica,sans-serif" font-size="16" fill="#166534">LS 5012 · Haller GmbH</text>
  <rect x="664" y="200" width="176" height="88" fill="#ffffff" stroke="#b45309" stroke-width="2" rx="10"/>
  <text x="680" y="228" font-family="Arial,Helvetica,sans-serif" font-size="22" fill="#b45309">🧾 Basel</text>
  <text x="680" y="256" font-family="Arial,Helvetica,sans-serif" font-size="16" fill="#b45309">LS 5016 · Studio Seeblick</text>
  <rect x="32" y="464" width="896" height="44" fill="#e2e8f0" rx="8"/>
  <text x="48" y="492" font-family="Arial,Helvetica,sans-serif" font-size="18" fill="#1e293b">Suche · Lieferschein 5009</text>
</svg>
